<svg id="SvgjsSvg1001" width="288" height="288" xmlns="http://www.w3.org/2000/svg" version="1.1" xmlns:xlink="http://www.w3.org/1999/xlink" xmlns:svgjs="http://svgjs.com/svgjs"><defs id="SvgjsDefs1002"></defs><g id="SvgjsG1008" transform="matrix(1,0,0,1,0,0)"><svg xmlns="http://www.w3.org/2000/svg" xmlns:svgjs="http://svgjs.com/svgjs" xmlns:xlink="http://www.w3.org/1999/xlink" width="288" height="288"><svg xmlns="http://www.w3.org/2000/svg" width="288" height="288" version="1.0" viewBox="0 0 580 446"><g fill="#ffffff" class="color000 svgShape color66f" transform="matrix(.1 0 0 -.1 0 446)"><path d="M2730 4457 c-3 -3 -32 -8 -65 -12 -190 -21 -463 -133 -644 -263 -602-431 -808 -1202 -502 -1876 115 -255 344 -509 594 -661 107 -65 325 -157 407-171 14 -3 41 -9 60 -14 73 -19 151 -25 340 -24 162 0 211 4 292 22 277 62
527 194 722 382 266 255 411 534 467 895 27 175 10 434 -41 618 -128 464 -485
849 -945 1019 -170 63 -263 79 -480 85 -110 3 -202 3 -205 0z m363 -92 c266
-40 500 -141 702 -304 243 -194 399 -434 489 -751 33 -115 40 -178 40 -360 0
-185 -7 -257 -40 -370 -78 -272 -191 -467 -380 -653 -222 -220 -495 -355 -809
-401 -83 -12 -320 -13 -392 -2 -106 16 -170 32 -262 63 -391 130 -706 423
-866 802 -37 88 -80 229 -90 296 -3 22 -10 69 -15 105 -5 36 -10 106 -10 155
0 50 5 119 10 155 5 36 12 83 15 105 10 67 53 208 90 296 176 417 535 723 980
835 182 45 364 55 538 29z" class="color000 svgShape" fill="#ffffff"></path><path d="M2260 2946l0-826 215 0 215 0 0 280 0 280 193 0c276 0 366 27 488 149 105 105 149 221 149 389 0 164-48 290-150 392-67 67-122 100-215 131-68 22-84 23-482 27l-413 4 0-826zm762 435c35-17 52-33 67-65 45-91 16-217-57-252-51-25-70-27-212-28l-125-1-3 189-2 189 143-5c122-3 149-7 189-27zM1092 1020c-96-39-109-165-22-217 16-9 30-20 30-24 0-4 11-10 25-13 14-4 25-11 25-16 0-6 6-10 14-10 15 0 66-58 66-75 0-18-32-40-60-43-14-2-45 4-69 13-59 20-68 19-87-11-16-24-16-26 3-45 11-11 28-22 39-24 10-2 19-4 19-5 0-1 11-4 25-8 55-13 141-2 169 21 25 21 53 97 46 125-4 15-6 29-5 31 1 2-2 7-7 10-5 3-16 18-25 32-9 14-33 35-53 45-20 10-45 23-56 29-10 5-19 13-19 17 0 5-6 8-12 8-7 0-21 11-30 24-15 20-15 26-3 42 16 22 78 26 115 7 22-11 27-10 42 10 27 35 22 56-17 73-38 16-118 18-153 4zM4800 1027c0-4 0-110 0-237 0-126 0-235 0-241 0-6 16-9 38-7l37 3 3 145 3 144 143-143c83-83 148-141 155-137 8 5 11 79 11 237l0 229-40 0-40 0 0-147 0-148-155 155c-85 85-155 151-155 147zM5572 1020c-51-11-111-52-142-97-48-71-55-185-16-262 21-40 93-99 135-111 61-17 148-12 202 11l49 21 0 119 0 119-80 0-80 0 0-35c0-34 1-35 40-35l40 0 0-59c0-33-4-63-10-66-5-3-37-6-70-6-77-1-117 22-148 81-42 81-21 170 52 224 37 28 139 29 181 2 28-19 29-19 47 4 26 32 23 44-19 67-45 25-122 35-181 23zM0 779l0-241 133 4c141 3 155 8 197 61 44 55 29 170-30 224-18 17-20 25-11 41 20 38 13 94-16 124-26 28-28 28-150 28l-123 0 0-241zm217 145c12-33-11-49-76-52l-61-3 0 36 0 35 65 0c52 0 67-4 72-16zm-16-136c50-17 67-41 65-90-3-55-28-71-117-76l-69-4 0 91 0 91 44 0c23 0 58-5 77-12zM540 785l0-235 145 0c109 0 145 3 145 13 0 6 3 22 6 34 6 22 4 22-102 25l-109 3-3 78-3 77 71 0 71 0-3 33c-3 32-3 32-68 37l-65 5-3 48-3 47 104 0 104 0-1 35-1 35-142 0-143 0 0-235zM1467 1013c-4-3-7-19-7-35 0-28 0-28 65-28l65 0 0-200 0-200 43 0 42 0-3 200-4 200 71 0c74 0 77 2 65 48-6 22-9 22-168 22-90 0-166-3-169-7zM2315 958c-3-35-5-142-3-238l3-175 43-3 42-3 0 64 0 65 84 3c90 4 119 17 160 72 31 41 34 134 7 191-34 68-78 86-218 86l-111 0-7-62zm245-43c32-34 34-106 3-137-18-18-37-23-93-26l-70-4 0 96 0 96 68 0c60 0 71-3 92-25zM2927 798c-53-123-99-231-103-240-5-15 0-18 35-18 40 0 43 2 61 45l19 45 94 0 94 0 19-42c15-34 25-44 47-46 60-7 60-4-38 222-105 240-112 256-123 256-5 0-52-100-105-222zm162-83c1-6-25-10-58-10l-59 0 14 33c8 17 21 49 30 70l17 37 28-60c15-33 28-64 28-70zM3414 1007c-2-7-3-114-2-237l3-225 38-3 37-3 0 65 0 66 48 0c45-1 48-2 82-52 19-28 41-57 48-65 14-14 92-19 92-5 0 4-20 36-45 71l-45 64 30 18c36 22 56 59 65 121 12 82-25 155-92 184-43 19-252 20-259 1zm223-73c45-9 66-89 38-143-18-36-31-41-116-41l-69 0 0 93c0 52 3 97 7 100 6 6 92 1 140-9zM3962 783l3-238 35 0 35 0 5 60c4 47 11 68 35 97 17 21 32 38 35 38 3-1 32-45 65-98 60-96 61-97 103-100 23-2 42 1 42 7 0 5-34 64-75 130-41 67-75 126-75 132 0 6 32 49 70 96 39 48 69 91 67 97-2 6-19 12-38 14-33 3-38-2-129-115l-95-117-5 114-5 115-38 3-37 3 2-238zM4500 780l0-240 40 0 40 0 0 240 0 240-40 0-40 0 0-240zM734 236c-3-8 7-33 21-55 22-33 28-53 29-108 1-62 3-68 24-71 21-3 22 0 22 58 0 45 6 73 25 110 30 60 32 80 5 80-13 0-25-13-38-41l-19-41-16 41c-17 41-43 54-53 27zM1015 228c-14-14-18-33-17-95 0-43 5-90 12-104 10-22 18-26 64-28 40-1 56 2 67 16 22 26 25 149 5 197-15 36-16 37-64 34-29-2-56-10-67-20zm88-20c13-10 17-30 18-84 1-40-1-76-5-82-6-9-59-7-77 3-5 4-9 35-9 70 0 53 4 68 22 85 26 24 29 24 51 8zM1290 147c0-129 10-147 78-147 79 0 92 22 92 154 0 88-2 96-19 96-17 0-19-10-23-96-2-79-6-98-21-109-12-9-27-11-40-6-20 8-22 16-25 110-2 93-4 101-22 101-19 0-20-7-20-103zM1793 243c-17-6-18-229-2-239 20-12 30 19 27 84-2 34-1 62 2 62 3 0 16-33 30-72 16-47 30-73 40-73 8 0 16 6 16 13 1 6 3 14 4 17 1 3 3 8 4 13 1 4 4 12 7 17 4 6 9 27 13 48 11 59 22 43 19-25-4-64 6-96 26-84 14 9 15 235 1 237-35 5-45 3-46-8-1-7-3-15-4-18-1-3-3-8-5-12-1-5-5-16-8-25-4-10-10-26-14-35-8-23-10-30-12-45-1-12-15-2-17 13-1 5-3 11-4 14-1 3-4 10-5 15-1 6-4 12-5 15-1 3-4 10-5 15-1 6-4 12-5 15-1 3-4 10-5 15-1 6-4 13-5 18-1 4-2 10-2 13 2 9-30 17-45 12zM2169 217c-22-56-30-81-34-116-3-19-10-39-15-46-10-12-2-55 11-55 11 0 23 21 24 40 0 11 11 15 40 15 33 0 40-4 45-24 3-14 10-26 17-28 12-4 25 35 13 42-4 3-11 22-16 42-8 42-8 41-17 63-3 8-11 31-17 52-15 49-35 55-51 15zm51-114c0-2-12-3-26-3-20 0-25 4-20 16 3 9 9 27 12 41 6 24 7 24 20-13 8-22 14-40 14-41zM2390 234c0-9 11-38 25-66 18-36 25-66 25-109 0-53 2-59 21-59 19 0 20 5 18 64-2 53 2 71 24 109 31 53 33 63 11 71-20 8-17 11-41-37l-19-39-19 41c-18 41-45 56-45 25zM2850 124c0-95 3-125 12-122 7 3 15 15 18 28 4 17 17 26 45 34 52 15 70 50 58 114-9 53-34 72-95 72l-38 0 0-126zm95 36c0-43-1-45-30-45-29 0-30 2-33 48l-3 48 33-3c32-3 33-4 33-48zM4422 242c-9-6-12-38-10-123l3-114 58-3c46-2 57 0 57 13 0 11-11 15-45 15l-45 0 0 40 0 40 41 0c52 0 48 24-4 28-35 3-37 5-37 38 0 33 1 34 39 34 42 0 63 16 40 31-18 11-80 11-97 1zM4683 244c-18-8-18-247 0-242 6 3 13 19 15 36 4 43 27 41 53-3 12-19 25-35 30-35 12 0 11 27-2 51-8 16-7 25 5 38 21 23 22 124 1 141-16 13-83 22-102 14zm85-68c6-53-5-76-38-76-30 0-30 1-30 56l0 55 33-3c27-3 33-7 35-32zM3132 163c-13-43-28-88-33-101-14-34-11-62 6-62 9 0 18 12 22 30 5 26 10 30 40 30 29 0 36-5 46-30 11-30 37-42 37-18 0 7-14 61-32 120-39 136-54 141-86 31zm56-38c10-34 9-36-11-29-29 9-29 8-21 38 9 36 19 33 32-9zM3380 119c0-92 3-120 13-117 6 3 13 19 15 36 4 44 33 42 55-3 9-19 20-35 25-35 19 0 21 14 6 42-14 27-14 32 0 47 19 21 22 121 4 139-7 7-36 12-65 12l-53 0 0-121zm98 39c-3-52-4-53-35-56l-33-3 0 55 0 56 36 0 35 0-3-52zM3652 123c2-82 7-118 16-121 8-2 12 10 12 40 0 26 8 52 18 66l18 23 25-62c13-35 30-64 37-67 18-6 15 15-14 90l-26 68 21 29c24 33 27 51 8 51-7 0-30-24-50-52l-37-53 0 53c0 40-4 52-15 52-13 0-15-17-13-117zM4122 123c2-82 7-118 16-121 9-3 12 12 12 52l0 56 45 0 45 0 0-55c0-42 3-55 15-55 13 0 15 20 15 120 0 100-2 120-15 120-11 0-15-12-15-50l0-50-45 0-45 0 0 50c0 38-4 50-15 50-13 0-15-17-13-117zM4942 123l3-118 53 0c61 0 71 19 12 23-39 3-40 4-40 43 0 38 1 39 35 39 24 0 35 5 35 15 0 10-11 15-35 15-34 0-35 1-35 40 0 38 2 40 24 34 28-7 66 3 66 17 0 5-27 9-60 9l-61 0 3-117z" class="color000 svgShape" fill="#ffffff"></path></g></svg></svg></g></svg>