<svg id="SvgjsSvg1001" width="288" height="288" xmlns="http://www.w3.org/2000/svg" version="1.1" xmlns:xlink="http://www.w3.org/1999/xlink" xmlns:svgjs="http://svgjs.com/svgjs"><defs id="SvgjsDefs1002"></defs><g id="SvgjsG1008" transform="matrix(1,0,0,1,0,0)"><svg xmlns="http://www.w3.org/2000/svg" width="288" height="288" version="1.0" viewBox="0 0 455 625"><g transform="matrix(.1 0 0 -.1 0 625)" fill="#ffffff" class="color000 svgShape"><path d="M100 5950l0-150 75 0 75 0 0 75 0 75 75 0 75 0 0 75 0 75-150 0-150 0 0-150zM820 6025l0-75 205 0 205 0 0 75 0 75-205 0-205 0 0-75zM1640 6025l0-75 205 0 205 0 0 75 0 75-205 0-205 0 0-75zM2470 6025l0-75 205 0 205 0 0 75 0 75-205 0-205 0 0-75zM3290 6025l0-75 205 0 205 0 0 75 0 75-205 0-205 0 0-75zM4110 6025l0-75 75 0 75 0 0-75 0-75 75 0 75 0 0 150 0 150-150 0-150 0 0-75zM100 5175l0-205 75 0 75 0 0 205 0 205-75 0-75 0 0-205zM4260 5175l0-205 75 0 75 0 0 205 0 205-75 0-75 0 0-205zM1630 4936c-234-81-396-233-446-419-11-43-14-245-14-1166l0-1115-87 117c-75 100-92 117-115 117-36 0-51-28-34-61 7-14 63-92 124-174l112-148 0-453c0-439 1-455 21-511 42-113 130-230 227-304 222-168 534-243 909-218 219 14 365 51 538 134 186 90 346 239 426 396l29 58 0 453 0 454 101 162c92 147 101 165 91 188-8 16-20 24-36 24-27 0-48-24-112-129l-39-65-5 1055-5 1054-23 70c-84 249-246 414-476 484-66 20-87 21-595 20-519 0-527 0-591-23zm1083-144c34-98 102-178 184-218 47-24 74-29 162-34l106-5 25-60 25-60 3-1521 2-1521-39-6c-55-7-159-60-217-112-54-47-106-132-124-205-6-25-12-88-13-140l-2-95-83-33c-46-18-134-45-195-60-105-25-127-27-347-26-261 0-341 11-510 73-121 45-114 35-99 124 15 87 3 181-32 249-44 86-141 167-246 204l-53 19 0 1537c0 1036 3 1553 10 1586l11 49 73-5c169-11 278 77 320 257 8 33 17 64 21 70 4 8 157 11 498 11l492 0 28-78zm182 18c66-32 133-84 186-144l34-39-70 5c-125 9-213 79-250 196-6 22-5 23 17 17 12-3 50-19 83-35zm-1311-17c-28-116-119-184-229-171l-29 3 61 60c52 52 172 135 195 135 5 0 5-12 2-27zm1636-3556c0-79-120-237-254-334l-49-35 5 84c8 140 67 231 190 292 96 48 108 48 108-7zm-1865-12c111-65 170-192 148-315l-9-45-76 76c-90 88-158 211-158 286 0 42 0 42 28 32 15-6 45-21 67-34z" fill="#ffffff" class="color000 svgShape"></path><path d="M1915 4610c-143-37-314-134-394-226l-31-35 0-389c0-459-11-425 123-391 274 70 724 70 1160 0 101-16 131-18 143-8 12 10 14 71 12 407l-3 396-57 46c-102 82-267 152-458 195-48 11-137 18-245 21-147 3-181 1-250-16zm426-86c171-28 365-104 466-181l33-25 0-335c0-314-1-334-17-329-10 3-65 12-123 20-429 62-771 59-1087-9l-33-7 0 330 0 330 41 36c89 81 213 144 333 171 85 18 274 18 387-1zM1300 3965c-10-12-9-52 4-197 41-473 46-964 11-1143-30-150-30-152-6-165 51-27 71 4 97 153 21 117 29 580 15 819-17 277-41 521-53 535-14 18-53 16-68-2zM3072 3967c-6-7-18-87-26-177-53-564-46-1112 15-1297 12-37 39-49 70-33 24 13 24 16-6 165-36 178-31 688 11 1148 13 141 14 180 4 192-15 18-54 20-68 2zM1512 2682c-14-14-39-120-97-412l-78-393 24-46c36-69 191-221 274-268 139-80 260-116 443-134 201-19 470 20 655 94 190 77 387 248 387 336 0 14-26 203-57 420-51 354-59 395-78 407-18 12-33 11-111-11-188-51-444-85-644-85-210 0-489 40-634 90-71 24-62 24-84 2zm166-121c324-80 747-82 1087-5 61 14 121 27 135 30l25 5 53-366 53-367-37-45c-132-161-393-270-696-292-233-16-421 17-582 102-85 45-207 151-256 222l-30 43 70 348c39 192 70 350 70 352 0 2 7 1 16-2 8-3 50-15 92-25zM100 4350l0-210 75 0 75 0 0 210 0 210-75 0-75 0 0-210zM4260 4350l0-210 75 0 75 0 0 210 0 210-75 0-75 0 0-210zM100 3520l0-210 75 0 75 0 0 210 0 210-75 0-75 0 0-210zM4260 3520l0-210 75 0 75 0 0 210 0 210-75 0-75 0 0-210zM100 2690l0-210 75 0 75 0 0 210 0 210-75 0-75 0 0-210zM4260 2690l0-210 75 0 75 0 0 210 0 210-75 0-75 0 0-210zM100 1860l0-210 75 0 75 0 0 210 0 210-75 0-75 0 0-210zM4260 1860l0-210 75 0 75 0 0 210 0 210-75 0-75 0 0-210zM100 1030l0-210 75 0 75 0 0 210 0 210-75 0-75 0 0-210zM4260 1030l0-210 75 0 75 0 0 210 0 210-75 0-75 0 0-210zM100 300l0-110 75 0 75 0 0 110 0 110-75 0-75 0 0-110zM4260 300l0-110 75 0 75 0 0 110 0 110-75 0-75 0 0-110z" fill="#ffffff" class="color000 svgShape"></path></g></svg></g></svg>