<?xml version="1.0" standalone="no"?>
<!DOCTYPE svg PUBLIC "-//W3C//DTD SVG 20010904//EN"
 "http://www.w3.org/TR/2001/REC-SVG-20010904/DTD/svg10.dtd">
<svg version="1.0" xmlns="http://www.w3.org/2000/svg"
 width="455.000000pt" height="625.000000pt" viewBox="0 0 455.000000 625.000000"
 preserveAspectRatio="xMidYMid meet">

<g transform="translate(0.000000,625.000000) scale(0.100000,-0.100000)"
fill="#000000" stroke="none">
<path d="M100 5950 l0 -150 75 0 75 0 0 75 0 75 75 0 75 0 0 75 0 75 -150 0
-150 0 0 -150z"/>
<path d="M820 6025 l0 -75 205 0 205 0 0 75 0 75 -205 0 -205 0 0 -75z"/>
<path d="M1640 6025 l0 -75 205 0 205 0 0 75 0 75 -205 0 -205 0 0 -75z"/>
<path d="M2470 6025 l0 -75 205 0 205 0 0 75 0 75 -205 0 -205 0 0 -75z"/>
<path d="M3290 6025 l0 -75 205 0 205 0 0 75 0 75 -205 0 -205 0 0 -75z"/>
<path d="M4110 6025 l0 -75 75 0 75 0 0 -75 0 -75 75 0 75 0 0 150 0 150 -150
0 -150 0 0 -75z"/>
<path d="M100 5175 l0 -205 75 0 75 0 0 205 0 205 -75 0 -75 0 0 -205z"/>
<path d="M4260 5175 l0 -205 75 0 75 0 0 205 0 205 -75 0 -75 0 0 -205z"/>
<path d="M100 4350 l0 -210 75 0 75 0 0 210 0 210 -75 0 -75 0 0 -210z"/>
<path d="M4260 4350 l0 -210 75 0 75 0 0 210 0 210 -75 0 -75 0 0 -210z"/>
<path d="M100 3520 l0 -210 75 0 75 0 0 210 0 210 -75 0 -75 0 0 -210z"/>
<path d="M4260 3520 l0 -210 75 0 75 0 0 210 0 210 -75 0 -75 0 0 -210z"/>
<path d="M1115 2975 l-25 -24 0 -1133 c1 -875 3 -1137 13 -1149 30 -39 20 -39
1182 -39 l1126 0 24 25 25 24 0 1139 0 1139 -23 21 -23 22 -1138 0 -1137 0
-24 -25z m2175 -1155 l0 -1020 -1015 0 -1015 0 0 1020 0 1020 1015 0 1015 0 0
-1020z"/>
<path d="M1956 2379 l-26 -20 0 -578 c0 -647 -3 -621 69 -621 69 0 71 7 71
263 l0 227 99 0 c247 0 419 77 488 218 25 51 28 67 27 157 -1 168 -57 265
-187 326 -83 38 -161 49 -353 49 -148 0 -163 -2 -188 -21z m428 -145 c104 -25
144 -71 153 -175 11 -112 -18 -169 -106 -213 -66 -33 -137 -46 -256 -46 l-105
0 0 230 0 231 128 -6 c70 -4 153 -13 186 -21z"/>
<path d="M100 2690 l0 -210 75 0 75 0 0 210 0 210 -75 0 -75 0 0 -210z"/>
<path d="M4260 2690 l0 -210 75 0 75 0 0 210 0 210 -75 0 -75 0 0 -210z"/>
<path d="M100 1860 l0 -210 75 0 75 0 0 210 0 210 -75 0 -75 0 0 -210z"/>
<path d="M4260 1860 l0 -210 75 0 75 0 0 210 0 210 -75 0 -75 0 0 -210z"/>
<path d="M100 1030 l0 -210 75 0 75 0 0 210 0 210 -75 0 -75 0 0 -210z"/>
<path d="M4260 1030 l0 -210 75 0 75 0 0 210 0 210 -75 0 -75 0 0 -210z"/>
<path d="M100 300 l0 -110 75 0 75 0 0 110 0 110 -75 0 -75 0 0 -110z"/>
<path d="M4260 300 l0 -110 75 0 75 0 0 110 0 110 -75 0 -75 0 0 -110z"/>
</g>
</svg>
