<svg id="SvgjsSvg1027" width="288" height="288" xmlns="http://www.w3.org/2000/svg" version="1.1" xmlns:xlink="http://www.w3.org/1999/xlink" xmlns:svgjs="http://svgjs.com/svgjs"><defs id="SvgjsDefs1028"></defs><g id="SvgjsG1029"><svg xmlns="http://www.w3.org/2000/svg" width="288" height="288" version="1.0" viewBox="0 0 455 625"><g transform="matrix(.1 0 0 -.1 0 625)" fill="#ffffff" class="color000 svgShape"><path d="M100 5950l0-150 75 0 75 0 0 75 0 75 75 0 75 0 0 75 0 75-150 0-150 0 0-150zM820 6025l0-75 205 0 205 0 0 75 0 75-205 0-205 0 0-75zM1640 6025l0-75 205 0 205 0 0 75 0 75-205 0-205 0 0-75zM2470 6025l0-75 205 0 205 0 0 75 0 75-205 0-205 0 0-75zM3290 6025l0-75 205 0 205 0 0 75 0 75-205 0-205 0 0-75zM4110 6025l0-75 75 0 75 0 0-75 0-75 75 0 75 0 0 150 0 150-150 0-150 0 0-75zM100 5175l0-205 75 0 75 0 0 205 0 205-75 0-75 0 0-205zM4260 5175l0-205 75 0 75 0 0 205 0 205-75 0-75 0 0-205zM100 4350l0-210 75 0 75 0 0 210 0 210-75 0-75 0 0-210zM4260 4350l0-210 75 0 75 0 0 210 0 210-75 0-75 0 0-210zM100 3520l0-210 75 0 75 0 0 210 0 210-75 0-75 0 0-210zM4260 3520l0-210 75 0 75 0 0 210 0 210-75 0-75 0 0-210zM1115 2975l-25-24 0-1133c1-875 3-1137 13-1149 30-39 20-39 1182-39l1126 0 24 25 25 24 0 1139 0 1139-23 21-23 22-1138 0-1137 0-24-25zm2175-1155l0-1020-1015 0-1015 0 0 1020 0 1020 1015 0 1015 0 0-1020z" fill="#ffffff" class="color000 svgShape"></path><path d="M1956 2379l-26-20 0-578c0-647-3-621 69-621 69 0 71 7 71 263l0 227 99 0c247 0 419 77 488 218 25 51 28 67 27 157-1 168-57 265-187 326-83 38-161 49-353 49-148 0-163-2-188-21zm428-145c104-25 144-71 153-175 11-112-18-169-106-213-66-33-137-46-256-46l-105 0 0 230 0 231 128-6c70-4 153-13 186-21zM100 2690l0-210 75 0 75 0 0 210 0 210-75 0-75 0 0-210zM4260 2690l0-210 75 0 75 0 0 210 0 210-75 0-75 0 0-210zM100 1860l0-210 75 0 75 0 0 210 0 210-75 0-75 0 0-210zM4260 1860l0-210 75 0 75 0 0 210 0 210-75 0-75 0 0-210zM100 1030l0-210 75 0 75 0 0 210 0 210-75 0-75 0 0-210zM4260 1030l0-210 75 0 75 0 0 210 0 210-75 0-75 0 0-210zM100 300l0-110 75 0 75 0 0 110 0 110-75 0-75 0 0-110zM4260 300l0-110 75 0 75 0 0 110 0 110-75 0-75 0 0-110z" fill="#ffffff" class="color000 svgShape"></path></g></svg></g></svg>